<mxfile host="app.diagrams.net" modified="2021-12-21T08:14:27.986Z" agent="5.0 (Windows NT 10.0; Win64; x64) AppleWebKit/537.36 (KHTML, like Gecko) Chrome/96.0.4664.110 Safari/537.36" etag="99VCBRA-CiUt3rgZPFP3" version="15.9.6" type="github">
  <diagram id="Vgfz-gdBaDkI7XahHWoh" name="Page-1">
    <mxGraphModel dx="1422" dy="796" grid="0" gridSize="10" guides="1" tooltips="1" connect="1" arrows="1" fold="1" page="1" pageScale="1" pageWidth="827" pageHeight="1169" math="0" shadow="0">
      <root>
        <mxCell id="0" />
        <mxCell id="1" parent="0" />
        <mxCell id="T0S8Lt8zlhyl-Dq2tP5w-17" value="" style="edgeStyle=orthogonalEdgeStyle;rounded=0;orthogonalLoop=1;jettySize=auto;html=1;" edge="1" parent="1" source="T0S8Lt8zlhyl-Dq2tP5w-1" target="T0S8Lt8zlhyl-Dq2tP5w-12">
          <mxGeometry relative="1" as="geometry" />
        </mxCell>
        <mxCell id="T0S8Lt8zlhyl-Dq2tP5w-68" style="edgeStyle=orthogonalEdgeStyle;rounded=0;orthogonalLoop=1;jettySize=auto;html=1;exitX=1;exitY=0.25;exitDx=0;exitDy=0;entryX=0;entryY=0.75;entryDx=0;entryDy=0;" edge="1" parent="1" source="T0S8Lt8zlhyl-Dq2tP5w-1" target="T0S8Lt8zlhyl-Dq2tP5w-54">
          <mxGeometry relative="1" as="geometry">
            <Array as="points">
              <mxPoint x="521" y="273" />
            </Array>
          </mxGeometry>
        </mxCell>
        <mxCell id="T0S8Lt8zlhyl-Dq2tP5w-71" style="edgeStyle=orthogonalEdgeStyle;rounded=0;orthogonalLoop=1;jettySize=auto;html=1;exitX=1;exitY=0.75;exitDx=0;exitDy=0;entryX=0;entryY=0.25;entryDx=0;entryDy=0;" edge="1" parent="1" source="T0S8Lt8zlhyl-Dq2tP5w-1" target="T0S8Lt8zlhyl-Dq2tP5w-13">
          <mxGeometry relative="1" as="geometry">
            <Array as="points">
              <mxPoint x="521" y="363" />
            </Array>
          </mxGeometry>
        </mxCell>
        <mxCell id="T0S8Lt8zlhyl-Dq2tP5w-1" value="主控板（模组）" style="rounded=1;whiteSpace=wrap;html=1;" vertex="1" parent="1">
          <mxGeometry x="277.5" y="265" width="243" height="108" as="geometry" />
        </mxCell>
        <mxCell id="T0S8Lt8zlhyl-Dq2tP5w-73" value="" style="edgeStyle=orthogonalEdgeStyle;rounded=0;orthogonalLoop=1;jettySize=auto;html=1;" edge="1" parent="1" source="T0S8Lt8zlhyl-Dq2tP5w-9" target="T0S8Lt8zlhyl-Dq2tP5w-1">
          <mxGeometry relative="1" as="geometry" />
        </mxCell>
        <mxCell id="T0S8Lt8zlhyl-Dq2tP5w-9" value="触摸按键" style="rounded=0;whiteSpace=wrap;html=1;" vertex="1" parent="1">
          <mxGeometry x="344" y="182" width="109" height="56" as="geometry" />
        </mxCell>
        <mxCell id="T0S8Lt8zlhyl-Dq2tP5w-46" value="" style="edgeStyle=orthogonalEdgeStyle;rounded=0;orthogonalLoop=1;jettySize=auto;html=1;" edge="1" parent="1" source="T0S8Lt8zlhyl-Dq2tP5w-12" target="T0S8Lt8zlhyl-Dq2tP5w-45">
          <mxGeometry relative="1" as="geometry" />
        </mxCell>
        <mxCell id="T0S8Lt8zlhyl-Dq2tP5w-12" value="指示灯" style="rounded=0;whiteSpace=wrap;html=1;" vertex="1" parent="1">
          <mxGeometry x="348.5" y="397" width="101" height="56" as="geometry" />
        </mxCell>
        <mxCell id="T0S8Lt8zlhyl-Dq2tP5w-13" value="两位断码屏" style="rounded=0;whiteSpace=wrap;html=1;" vertex="1" parent="1">
          <mxGeometry x="567" y="353" width="88" height="39" as="geometry" />
        </mxCell>
        <mxCell id="T0S8Lt8zlhyl-Dq2tP5w-20" value="开关键（复用配网）" style="whiteSpace=wrap;html=1;rounded=0;" vertex="1" parent="1">
          <mxGeometry x="293" y="63" width="81" height="34" as="geometry" />
        </mxCell>
        <mxCell id="T0S8Lt8zlhyl-Dq2tP5w-22" value="档位键" style="whiteSpace=wrap;html=1;rounded=0;" vertex="1" parent="1">
          <mxGeometry x="293" y="115" width="81" height="34" as="geometry" />
        </mxCell>
        <mxCell id="T0S8Lt8zlhyl-Dq2tP5w-24" value="定时键" style="whiteSpace=wrap;html=1;rounded=0;" vertex="1" parent="1">
          <mxGeometry x="424" y="63" width="81" height="34" as="geometry" />
        </mxCell>
        <mxCell id="T0S8Lt8zlhyl-Dq2tP5w-25" value="温度设置键" style="whiteSpace=wrap;html=1;rounded=0;" vertex="1" parent="1">
          <mxGeometry x="426" y="115" width="81" height="34" as="geometry" />
        </mxCell>
        <mxCell id="T0S8Lt8zlhyl-Dq2tP5w-72" value="" style="edgeStyle=orthogonalEdgeStyle;rounded=0;orthogonalLoop=1;jettySize=auto;html=1;" edge="1" parent="1" source="T0S8Lt8zlhyl-Dq2tP5w-27" target="T0S8Lt8zlhyl-Dq2tP5w-9">
          <mxGeometry relative="1" as="geometry" />
        </mxCell>
        <mxCell id="T0S8Lt8zlhyl-Dq2tP5w-27" value="" style="rounded=0;whiteSpace=wrap;html=1;fillColor=none;" vertex="1" parent="1">
          <mxGeometry x="270" y="48" width="258" height="109" as="geometry" />
        </mxCell>
        <mxCell id="T0S8Lt8zlhyl-Dq2tP5w-30" value="开关灯" style="whiteSpace=wrap;html=1;rounded=0;" vertex="1" parent="1">
          <mxGeometry x="168.5" y="494" width="81" height="34" as="geometry" />
        </mxCell>
        <mxCell id="T0S8Lt8zlhyl-Dq2tP5w-31" value="档位灯" style="whiteSpace=wrap;html=1;rounded=0;" vertex="1" parent="1">
          <mxGeometry x="263" y="494" width="81" height="34" as="geometry" />
        </mxCell>
        <mxCell id="T0S8Lt8zlhyl-Dq2tP5w-32" value="温度灯" style="whiteSpace=wrap;html=1;rounded=0;" vertex="1" parent="1">
          <mxGeometry x="358" y="494" width="81" height="34" as="geometry" />
        </mxCell>
        <mxCell id="T0S8Lt8zlhyl-Dq2tP5w-33" value="定时灯" style="whiteSpace=wrap;html=1;rounded=0;" vertex="1" parent="1">
          <mxGeometry x="453" y="494" width="81" height="34" as="geometry" />
        </mxCell>
        <mxCell id="T0S8Lt8zlhyl-Dq2tP5w-66" value="" style="edgeStyle=orthogonalEdgeStyle;rounded=0;orthogonalLoop=1;jettySize=auto;html=1;" edge="1" parent="1" source="T0S8Lt8zlhyl-Dq2tP5w-34" target="T0S8Lt8zlhyl-Dq2tP5w-1">
          <mxGeometry relative="1" as="geometry" />
        </mxCell>
        <mxCell id="T0S8Lt8zlhyl-Dq2tP5w-34" value="温度传感器" style="whiteSpace=wrap;html=1;rounded=0;" vertex="1" parent="1">
          <mxGeometry x="568" y="300" width="87" height="38" as="geometry" />
        </mxCell>
        <mxCell id="T0S8Lt8zlhyl-Dq2tP5w-35" value="℃单位灯" style="whiteSpace=wrap;html=1;rounded=0;" vertex="1" parent="1">
          <mxGeometry x="168.5" y="541" width="81" height="34" as="geometry" />
        </mxCell>
        <mxCell id="T0S8Lt8zlhyl-Dq2tP5w-36" value="h单位灯" style="whiteSpace=wrap;html=1;rounded=0;" vertex="1" parent="1">
          <mxGeometry x="263" y="541" width="81" height="34" as="geometry" />
        </mxCell>
        <mxCell id="T0S8Lt8zlhyl-Dq2tP5w-37" value="wifi指示灯" style="whiteSpace=wrap;html=1;rounded=0;" vertex="1" parent="1">
          <mxGeometry x="548.5" y="494" width="81" height="34" as="geometry" />
        </mxCell>
        <mxCell id="T0S8Lt8zlhyl-Dq2tP5w-39" value="低档位灯" style="whiteSpace=wrap;html=1;rounded=0;" vertex="1" parent="1">
          <mxGeometry x="358" y="541" width="81" height="34" as="geometry" />
        </mxCell>
        <mxCell id="T0S8Lt8zlhyl-Dq2tP5w-40" value="中档位灯" style="whiteSpace=wrap;html=1;rounded=0;" vertex="1" parent="1">
          <mxGeometry x="453" y="541" width="81" height="34" as="geometry" />
        </mxCell>
        <mxCell id="T0S8Lt8zlhyl-Dq2tP5w-41" value="高档位灯" style="whiteSpace=wrap;html=1;rounded=0;" vertex="1" parent="1">
          <mxGeometry x="548.5" y="540" width="81" height="34" as="geometry" />
        </mxCell>
        <mxCell id="T0S8Lt8zlhyl-Dq2tP5w-44" value="" style="edgeStyle=orthogonalEdgeStyle;rounded=0;orthogonalLoop=1;jettySize=auto;html=1;" edge="1" parent="1" source="T0S8Lt8zlhyl-Dq2tP5w-43" target="T0S8Lt8zlhyl-Dq2tP5w-1">
          <mxGeometry relative="1" as="geometry" />
        </mxCell>
        <mxCell id="T0S8Lt8zlhyl-Dq2tP5w-43" value="电源板" style="rounded=0;whiteSpace=wrap;html=1;" vertex="1" parent="1">
          <mxGeometry x="145" y="299.5" width="88" height="39" as="geometry" />
        </mxCell>
        <mxCell id="T0S8Lt8zlhyl-Dq2tP5w-45" value="" style="rounded=0;whiteSpace=wrap;html=1;fillColor=none;" vertex="1" parent="1">
          <mxGeometry x="148" y="476" width="502" height="113" as="geometry" />
        </mxCell>
        <mxCell id="T0S8Lt8zlhyl-Dq2tP5w-54" value="继电器" style="rounded=0;whiteSpace=wrap;html=1;" vertex="1" parent="1">
          <mxGeometry x="568" y="244" width="88" height="39" as="geometry" />
        </mxCell>
        <mxCell id="T0S8Lt8zlhyl-Dq2tP5w-74" value="input" style="text;html=1;strokeColor=none;fillColor=none;align=center;verticalAlign=middle;whiteSpace=wrap;rounded=0;" vertex="1" parent="1">
          <mxGeometry x="396" y="154" width="60" height="30" as="geometry" />
        </mxCell>
        <mxCell id="T0S8Lt8zlhyl-Dq2tP5w-75" value="input" style="text;html=1;strokeColor=none;fillColor=none;align=center;verticalAlign=middle;whiteSpace=wrap;rounded=0;" vertex="1" parent="1">
          <mxGeometry x="396" y="235" width="60" height="30" as="geometry" />
        </mxCell>
        <mxCell id="T0S8Lt8zlhyl-Dq2tP5w-76" value="input" style="text;html=1;strokeColor=none;fillColor=none;align=center;verticalAlign=middle;whiteSpace=wrap;rounded=0;" vertex="1" parent="1">
          <mxGeometry x="516" y="293" width="60" height="30" as="geometry" />
        </mxCell>
        <mxCell id="T0S8Lt8zlhyl-Dq2tP5w-77" value="output" style="text;html=1;strokeColor=none;fillColor=none;align=center;verticalAlign=middle;whiteSpace=wrap;rounded=0;" vertex="1" parent="1">
          <mxGeometry x="393" y="450" width="60" height="30" as="geometry" />
        </mxCell>
        <mxCell id="T0S8Lt8zlhyl-Dq2tP5w-81" value="output" style="text;html=1;strokeColor=none;fillColor=none;align=center;verticalAlign=middle;whiteSpace=wrap;rounded=0;" vertex="1" parent="1">
          <mxGeometry x="393" y="371" width="60" height="30" as="geometry" />
        </mxCell>
        <mxCell id="T0S8Lt8zlhyl-Dq2tP5w-82" value="output" style="text;html=1;strokeColor=none;fillColor=none;align=center;verticalAlign=middle;whiteSpace=wrap;rounded=0;" vertex="1" parent="1">
          <mxGeometry x="512" y="244" width="60" height="30" as="geometry" />
        </mxCell>
        <mxCell id="T0S8Lt8zlhyl-Dq2tP5w-83" value="output" style="text;html=1;strokeColor=none;fillColor=none;align=center;verticalAlign=middle;whiteSpace=wrap;rounded=0;" vertex="1" parent="1">
          <mxGeometry x="512" y="336" width="60" height="30" as="geometry" />
        </mxCell>
        <mxCell id="T0S8Lt8zlhyl-Dq2tP5w-85" value="input" style="text;html=1;strokeColor=none;fillColor=none;align=center;verticalAlign=middle;whiteSpace=wrap;rounded=0;" vertex="1" parent="1">
          <mxGeometry x="222" y="293" width="60" height="30" as="geometry" />
        </mxCell>
      </root>
    </mxGraphModel>
  </diagram>
</mxfile>
